<mxfile host="app.diagrams.net" modified="2024-06-17T11:50:30.404Z" agent="Mozilla/5.0 (X11; Linux x86_64) AppleWebKit/537.36 (KHTML, like Gecko) Chrome/126.0.0.0 Safari/537.36" etag="v2w_45CV_veWHX0AUqcw" version="24.2.3" type="device">
  <diagram name="Page-1" id="-kZiZ1GnlASyREBLFPDH">
    <mxGraphModel dx="2537" dy="925" grid="1" gridSize="10" guides="1" tooltips="1" connect="1" arrows="1" fold="1" page="1" pageScale="1" pageWidth="850" pageHeight="1100" math="0" shadow="0">
      <root>
        <mxCell id="0" />
        <mxCell id="1" parent="0" />
        <mxCell id="InM-GvDvjZe8zd8WrkyQ-20" style="edgeStyle=orthogonalEdgeStyle;rounded=0;orthogonalLoop=1;jettySize=auto;html=1;exitX=1;exitY=0.5;exitDx=0;exitDy=0;entryX=0;entryY=0.5;entryDx=0;entryDy=0;" edge="1" parent="1" source="InM-GvDvjZe8zd8WrkyQ-7" target="InM-GvDvjZe8zd8WrkyQ-6">
          <mxGeometry relative="1" as="geometry" />
        </mxCell>
        <mxCell id="InM-GvDvjZe8zd8WrkyQ-7" value="complete_search_stream()" style="rounded=1;whiteSpace=wrap;html=1;arcSize=50;" vertex="1" parent="1">
          <mxGeometry x="30" y="180" width="170" height="30" as="geometry" />
        </mxCell>
        <mxCell id="InM-GvDvjZe8zd8WrkyQ-18" style="edgeStyle=orthogonalEdgeStyle;rounded=0;orthogonalLoop=1;jettySize=auto;html=1;exitX=1;exitY=0.5;exitDx=0;exitDy=0;" edge="1" parent="1" source="InM-GvDvjZe8zd8WrkyQ-14" target="InM-GvDvjZe8zd8WrkyQ-15">
          <mxGeometry relative="1" as="geometry" />
        </mxCell>
        <mxCell id="InM-GvDvjZe8zd8WrkyQ-14" value="never_seen()" style="shape=hexagon;perimeter=hexagonPerimeter2;whiteSpace=wrap;html=1;fixedSize=1;" vertex="1" parent="1">
          <mxGeometry x="430" y="180" width="120" height="30" as="geometry" />
        </mxCell>
        <mxCell id="InM-GvDvjZe8zd8WrkyQ-17" style="edgeStyle=orthogonalEdgeStyle;rounded=0;orthogonalLoop=1;jettySize=auto;html=1;exitX=1;exitY=0.5;exitDx=0;exitDy=0;entryX=0;entryY=0.5;entryDx=0;entryDy=0;" edge="1" parent="1" source="InM-GvDvjZe8zd8WrkyQ-15" target="InM-GvDvjZe8zd8WrkyQ-16">
          <mxGeometry relative="1" as="geometry" />
        </mxCell>
        <mxCell id="InM-GvDvjZe8zd8WrkyQ-15" value="group_with_reputation()" style="rounded=0;whiteSpace=wrap;html=1;" vertex="1" parent="1">
          <mxGeometry x="600" y="180" width="150" height="30" as="geometry" />
        </mxCell>
        <mxCell id="InM-GvDvjZe8zd8WrkyQ-22" style="edgeStyle=orthogonalEdgeStyle;rounded=0;orthogonalLoop=1;jettySize=auto;html=1;exitX=1;exitY=0.5;exitDx=0;exitDy=0;" edge="1" parent="1" source="InM-GvDvjZe8zd8WrkyQ-16" target="InM-GvDvjZe8zd8WrkyQ-21">
          <mxGeometry relative="1" as="geometry" />
        </mxCell>
        <mxCell id="InM-GvDvjZe8zd8WrkyQ-16" value="time_gate()" style="shape=hexagon;perimeter=hexagonPerimeter2;whiteSpace=wrap;html=1;fixedSize=1;" vertex="1" parent="1">
          <mxGeometry x="790" y="180" width="120" height="30" as="geometry" />
        </mxCell>
        <mxCell id="InM-GvDvjZe8zd8WrkyQ-19" style="edgeStyle=orthogonalEdgeStyle;rounded=0;orthogonalLoop=1;jettySize=auto;html=1;exitX=1;exitY=0.5;exitDx=0;exitDy=0;entryX=0;entryY=0.5;entryDx=0;entryDy=0;" edge="1" parent="1" source="InM-GvDvjZe8zd8WrkyQ-6" target="InM-GvDvjZe8zd8WrkyQ-14">
          <mxGeometry relative="1" as="geometry" />
        </mxCell>
        <mxCell id="InM-GvDvjZe8zd8WrkyQ-42" value="" style="edgeStyle=orthogonalEdgeStyle;rounded=0;orthogonalLoop=1;jettySize=auto;html=1;" edge="1" parent="1" source="InM-GvDvjZe8zd8WrkyQ-21" target="InM-GvDvjZe8zd8WrkyQ-39">
          <mxGeometry relative="1" as="geometry" />
        </mxCell>
        <mxCell id="InM-GvDvjZe8zd8WrkyQ-21" value="reanalyze_samples()" style="rounded=1;whiteSpace=wrap;html=1;" vertex="1" parent="1">
          <mxGeometry x="950" y="180" width="120" height="30" as="geometry" />
        </mxCell>
        <mxCell id="InM-GvDvjZe8zd8WrkyQ-66" value="" style="edgeStyle=orthogonalEdgeStyle;rounded=0;orthogonalLoop=1;jettySize=auto;html=1;" edge="1" parent="1" source="InM-GvDvjZe8zd8WrkyQ-23" target="InM-GvDvjZe8zd8WrkyQ-65">
          <mxGeometry relative="1" as="geometry" />
        </mxCell>
        <mxCell id="InM-GvDvjZe8zd8WrkyQ-23" value="complete_retro_feed()" style="rounded=1;whiteSpace=wrap;html=1;" vertex="1" parent="1">
          <mxGeometry x="45" y="377" width="140" height="30" as="geometry" />
        </mxCell>
        <mxCell id="InM-GvDvjZe8zd8WrkyQ-69" value="" style="edgeStyle=orthogonalEdgeStyle;rounded=0;orthogonalLoop=1;jettySize=auto;html=1;" edge="1" parent="1" source="InM-GvDvjZe8zd8WrkyQ-24" target="InM-GvDvjZe8zd8WrkyQ-68">
          <mxGeometry relative="1" as="geometry" />
        </mxCell>
        <mxCell id="InM-GvDvjZe8zd8WrkyQ-24" value="complete_yara_feed()" style="rounded=1;whiteSpace=wrap;html=1;" vertex="1" parent="1">
          <mxGeometry x="42.5" y="457" width="145" height="30" as="geometry" />
        </mxCell>
        <mxCell id="InM-GvDvjZe8zd8WrkyQ-71" value="" style="edgeStyle=orthogonalEdgeStyle;rounded=0;orthogonalLoop=1;jettySize=auto;html=1;" edge="1" parent="1" source="InM-GvDvjZe8zd8WrkyQ-25" target="InM-GvDvjZe8zd8WrkyQ-70">
          <mxGeometry relative="1" as="geometry" />
        </mxCell>
        <mxCell id="InM-GvDvjZe8zd8WrkyQ-25" value="newer_than_fs()" style="shape=hexagon;perimeter=hexagonPerimeter2;whiteSpace=wrap;html=1;fixedSize=1;" vertex="1" parent="1">
          <mxGeometry x="420" y="377" width="120" height="30" as="geometry" />
        </mxCell>
        <mxCell id="InM-GvDvjZe8zd8WrkyQ-27" value="report.csv&lt;div&gt;reports/&lt;/div&gt;" style="shape=cylinder3;whiteSpace=wrap;html=1;boundedLbl=1;backgroundOutline=1;size=15;" vertex="1" parent="1">
          <mxGeometry x="810" y="397" width="90" height="80" as="geometry" />
        </mxCell>
        <mxCell id="InM-GvDvjZe8zd8WrkyQ-38" value="" style="edgeStyle=orthogonalEdgeStyle;rounded=0;orthogonalLoop=1;jettySize=auto;html=1;" edge="1" parent="1" source="InM-GvDvjZe8zd8WrkyQ-33" target="InM-GvDvjZe8zd8WrkyQ-34">
          <mxGeometry relative="1" as="geometry" />
        </mxCell>
        <mxCell id="InM-GvDvjZe8zd8WrkyQ-33" value="create_ruleset()" style="rounded=0;whiteSpace=wrap;html=1;" vertex="1" parent="1">
          <mxGeometry x="43" y="30" width="120" height="30" as="geometry" />
        </mxCell>
        <mxCell id="InM-GvDvjZe8zd8WrkyQ-44" value="" style="edgeStyle=orthogonalEdgeStyle;rounded=0;orthogonalLoop=1;jettySize=auto;html=1;" edge="1" parent="1" source="InM-GvDvjZe8zd8WrkyQ-34" target="InM-GvDvjZe8zd8WrkyQ-43">
          <mxGeometry relative="1" as="geometry" />
        </mxCell>
        <mxCell id="InM-GvDvjZe8zd8WrkyQ-34" value="start_retro_hunt()" style="rounded=0;whiteSpace=wrap;html=1;" vertex="1" parent="1">
          <mxGeometry x="220" y="30" width="120" height="30" as="geometry" />
        </mxCell>
        <mxCell id="InM-GvDvjZe8zd8WrkyQ-36" style="edgeStyle=orthogonalEdgeStyle;rounded=0;orthogonalLoop=1;jettySize=auto;html=1;exitX=0.5;exitY=1;exitDx=0;exitDy=0;" edge="1" parent="1" source="InM-GvDvjZe8zd8WrkyQ-33" target="InM-GvDvjZe8zd8WrkyQ-33">
          <mxGeometry relative="1" as="geometry" />
        </mxCell>
        <mxCell id="InM-GvDvjZe8zd8WrkyQ-39" value="1" style="ellipse;whiteSpace=wrap;html=1;dashed=1;" vertex="1" parent="1">
          <mxGeometry x="1090" y="175" width="40" height="40" as="geometry" />
        </mxCell>
        <mxCell id="InM-GvDvjZe8zd8WrkyQ-41" value="" style="edgeStyle=orthogonalEdgeStyle;rounded=0;orthogonalLoop=1;jettySize=auto;html=1;" edge="1" parent="1" source="InM-GvDvjZe8zd8WrkyQ-40" target="InM-GvDvjZe8zd8WrkyQ-24">
          <mxGeometry relative="1" as="geometry" />
        </mxCell>
        <mxCell id="InM-GvDvjZe8zd8WrkyQ-40" value="1" style="ellipse;whiteSpace=wrap;html=1;dashed=1;" vertex="1" parent="1">
          <mxGeometry x="-20" y="452" width="40" height="40" as="geometry" />
        </mxCell>
        <mxCell id="InM-GvDvjZe8zd8WrkyQ-43" value="2" style="ellipse;whiteSpace=wrap;html=1;dashed=1;" vertex="1" parent="1">
          <mxGeometry x="380" y="25" width="40" height="40" as="geometry" />
        </mxCell>
        <mxCell id="InM-GvDvjZe8zd8WrkyQ-46" value="" style="edgeStyle=orthogonalEdgeStyle;rounded=0;orthogonalLoop=1;jettySize=auto;html=1;" edge="1" parent="1" source="InM-GvDvjZe8zd8WrkyQ-45" target="InM-GvDvjZe8zd8WrkyQ-23">
          <mxGeometry relative="1" as="geometry" />
        </mxCell>
        <mxCell id="InM-GvDvjZe8zd8WrkyQ-45" value="2" style="ellipse;whiteSpace=wrap;html=1;dashed=1;" vertex="1" parent="1">
          <mxGeometry x="-20" y="372" width="40" height="40" as="geometry" />
        </mxCell>
        <mxCell id="InM-GvDvjZe8zd8WrkyQ-47" value="&lt;b&gt;&lt;font style=&quot;font-size: 28px;&quot;&gt;A&lt;/font&gt;&lt;/b&gt;" style="text;html=1;align=center;verticalAlign=middle;resizable=0;points=[];autosize=1;strokeColor=none;fillColor=none;" vertex="1" parent="1">
          <mxGeometry x="-100" y="25" width="40" height="50" as="geometry" />
        </mxCell>
        <mxCell id="InM-GvDvjZe8zd8WrkyQ-48" value="&lt;b&gt;&lt;font style=&quot;font-size: 28px;&quot;&gt;B&lt;/font&gt;&lt;/b&gt;" style="text;html=1;align=center;verticalAlign=middle;resizable=0;points=[];autosize=1;strokeColor=none;fillColor=none;" vertex="1" parent="1">
          <mxGeometry x="-100" y="180" width="40" height="50" as="geometry" />
        </mxCell>
        <mxCell id="InM-GvDvjZe8zd8WrkyQ-49" value="&lt;b&gt;&lt;font style=&quot;font-size: 28px;&quot;&gt;C&lt;/font&gt;&lt;/b&gt;" style="text;html=1;align=center;verticalAlign=middle;resizable=0;points=[];autosize=1;strokeColor=none;fillColor=none;" vertex="1" parent="1">
          <mxGeometry x="-100" y="372" width="40" height="50" as="geometry" />
        </mxCell>
        <mxCell id="InM-GvDvjZe8zd8WrkyQ-6" value="expand_similar()" style="rounded=0;whiteSpace=wrap;html=1;" vertex="1" parent="1">
          <mxGeometry x="252.5" y="180" width="115" height="30" as="geometry" />
        </mxCell>
        <mxCell id="InM-GvDvjZe8zd8WrkyQ-50" value="" style="edgeStyle=orthogonalEdgeStyle;rounded=0;orthogonalLoop=1;jettySize=auto;html=1;" edge="1" parent="1" source="InM-GvDvjZe8zd8WrkyQ-10" target="InM-GvDvjZe8zd8WrkyQ-6">
          <mxGeometry relative="1" as="geometry" />
        </mxCell>
        <mxCell id="InM-GvDvjZe8zd8WrkyQ-10" value="rha1_similar_to_sample()" style="rounded=1;whiteSpace=wrap;html=1;arcSize=50;" vertex="1" parent="1">
          <mxGeometry x="220" y="260" width="180" height="30" as="geometry" />
        </mxCell>
        <mxCell id="InM-GvDvjZe8zd8WrkyQ-51" value="SEARCH_LIMIT" style="endArrow=none;html=1;rounded=0;curved=0;strokeWidth=3;" edge="1" parent="1">
          <mxGeometry x="1" y="20" width="50" height="50" relative="1" as="geometry">
            <mxPoint x="223" y="210" as="sourcePoint" />
            <mxPoint x="223" y="180" as="targetPoint" />
            <mxPoint x="20" y="-20" as="offset" />
          </mxGeometry>
        </mxCell>
        <mxCell id="InM-GvDvjZe8zd8WrkyQ-52" value="YARA_LIMIT" style="endArrow=none;html=1;rounded=0;curved=0;strokeWidth=3;" edge="1" parent="1">
          <mxGeometry x="1" y="11" width="50" height="50" relative="1" as="geometry">
            <mxPoint x="230" y="488" as="sourcePoint" />
            <mxPoint x="230" y="458" as="targetPoint" />
            <mxPoint x="11" y="-11" as="offset" />
          </mxGeometry>
        </mxCell>
        <mxCell id="InM-GvDvjZe8zd8WrkyQ-53" value="RETRO_LIMIT" style="endArrow=none;html=1;rounded=0;curved=0;strokeWidth=3;" edge="1" parent="1">
          <mxGeometry x="1" y="20" width="50" height="50" relative="1" as="geometry">
            <mxPoint x="386" y="407" as="sourcePoint" />
            <mxPoint x="386" y="377" as="targetPoint" />
            <mxPoint x="20" y="-20" as="offset" />
          </mxGeometry>
        </mxCell>
        <mxCell id="InM-GvDvjZe8zd8WrkyQ-54" value="SIMILAR_LIMIT" style="endArrow=none;html=1;rounded=0;curved=0;strokeWidth=3;" edge="1" parent="1">
          <mxGeometry x="1" y="50" width="50" height="50" relative="1" as="geometry">
            <mxPoint x="290" y="236" as="sourcePoint" />
            <mxPoint x="330" y="236" as="targetPoint" />
            <mxPoint x="50" y="50" as="offset" />
          </mxGeometry>
        </mxCell>
        <mxCell id="InM-GvDvjZe8zd8WrkyQ-63" value="" style="group" vertex="1" connectable="0" parent="1">
          <mxGeometry x="950" y="262" width="150" height="230" as="geometry" />
        </mxCell>
        <mxCell id="InM-GvDvjZe8zd8WrkyQ-58" value="" style="rounded=0;whiteSpace=wrap;html=1;container=0;" vertex="1" parent="InM-GvDvjZe8zd8WrkyQ-63">
          <mxGeometry width="150" height="230" as="geometry" />
        </mxCell>
        <mxCell id="InM-GvDvjZe8zd8WrkyQ-56" value="enrichment" style="rounded=0;whiteSpace=wrap;html=1;container=0;" vertex="1" parent="InM-GvDvjZe8zd8WrkyQ-63">
          <mxGeometry x="15" y="94" width="120" height="28" as="geometry" />
        </mxCell>
        <mxCell id="InM-GvDvjZe8zd8WrkyQ-55" value="sample source" style="rounded=1;whiteSpace=wrap;html=1;arcSize=50;container=0;" vertex="1" parent="InM-GvDvjZe8zd8WrkyQ-63">
          <mxGeometry x="15" y="52" width="120" height="27" as="geometry" />
        </mxCell>
        <mxCell id="InM-GvDvjZe8zd8WrkyQ-57" value="filter" style="shape=hexagon;perimeter=hexagonPerimeter2;whiteSpace=wrap;html=1;fixedSize=1;container=0;" vertex="1" parent="InM-GvDvjZe8zd8WrkyQ-63">
          <mxGeometry x="15" y="140" width="120" height="30" as="geometry" />
        </mxCell>
        <mxCell id="InM-GvDvjZe8zd8WrkyQ-59" value="Legend" style="text;html=1;align=center;verticalAlign=middle;whiteSpace=wrap;rounded=0;container=0;" vertex="1" parent="InM-GvDvjZe8zd8WrkyQ-63">
          <mxGeometry x="45" y="2" width="60" height="30" as="geometry" />
        </mxCell>
        <mxCell id="InM-GvDvjZe8zd8WrkyQ-60" value="#" style="ellipse;whiteSpace=wrap;html=1;dashed=1;container=0;" vertex="1" parent="InM-GvDvjZe8zd8WrkyQ-63">
          <mxGeometry x="15" y="180" width="40" height="40" as="geometry" />
        </mxCell>
        <mxCell id="InM-GvDvjZe8zd8WrkyQ-62" value="Indirect pipeline" style="text;html=1;align=center;verticalAlign=middle;whiteSpace=wrap;rounded=0;container=0;" vertex="1" parent="InM-GvDvjZe8zd8WrkyQ-63">
          <mxGeometry x="70" y="185" width="60" height="30" as="geometry" />
        </mxCell>
        <mxCell id="InM-GvDvjZe8zd8WrkyQ-67" value="" style="edgeStyle=orthogonalEdgeStyle;rounded=0;orthogonalLoop=1;jettySize=auto;html=1;" edge="1" parent="1" source="InM-GvDvjZe8zd8WrkyQ-65" target="InM-GvDvjZe8zd8WrkyQ-25">
          <mxGeometry relative="1" as="geometry" />
        </mxCell>
        <mxCell id="InM-GvDvjZe8zd8WrkyQ-65" value="group_with_reputation()" style="rounded=0;whiteSpace=wrap;html=1;" vertex="1" parent="1">
          <mxGeometry x="205" y="377" width="150" height="30" as="geometry" />
        </mxCell>
        <mxCell id="InM-GvDvjZe8zd8WrkyQ-77" value="" style="edgeStyle=orthogonalEdgeStyle;rounded=0;orthogonalLoop=1;jettySize=auto;html=1;" edge="1" parent="1" source="InM-GvDvjZe8zd8WrkyQ-68" target="InM-GvDvjZe8zd8WrkyQ-75">
          <mxGeometry relative="1" as="geometry" />
        </mxCell>
        <mxCell id="InM-GvDvjZe8zd8WrkyQ-68" value="add_static()" style="rounded=0;whiteSpace=wrap;html=1;" vertex="1" parent="1">
          <mxGeometry x="560" y="457" width="80" height="30" as="geometry" />
        </mxCell>
        <mxCell id="InM-GvDvjZe8zd8WrkyQ-78" value="" style="edgeStyle=orthogonalEdgeStyle;rounded=0;orthogonalLoop=1;jettySize=auto;html=1;" edge="1" parent="1" source="InM-GvDvjZe8zd8WrkyQ-70" target="InM-GvDvjZe8zd8WrkyQ-76">
          <mxGeometry relative="1" as="geometry" />
        </mxCell>
        <mxCell id="InM-GvDvjZe8zd8WrkyQ-70" value="add_static()" style="rounded=0;whiteSpace=wrap;html=1;" vertex="1" parent="1">
          <mxGeometry x="560" y="377" width="80" height="30" as="geometry" />
        </mxCell>
        <mxCell id="InM-GvDvjZe8zd8WrkyQ-75" value="add_dynamic()" style="rounded=0;whiteSpace=wrap;html=1;" vertex="1" parent="1">
          <mxGeometry x="660" y="457" width="90" height="30" as="geometry" />
        </mxCell>
        <mxCell id="InM-GvDvjZe8zd8WrkyQ-76" value="add_dynamic()" style="rounded=0;whiteSpace=wrap;html=1;" vertex="1" parent="1">
          <mxGeometry x="660" y="377" width="90" height="30" as="geometry" />
        </mxCell>
        <mxCell id="InM-GvDvjZe8zd8WrkyQ-79" style="edgeStyle=orthogonalEdgeStyle;rounded=0;orthogonalLoop=1;jettySize=auto;html=1;exitX=1;exitY=0.5;exitDx=0;exitDy=0;entryX=0;entryY=0.5;entryDx=0;entryDy=0;entryPerimeter=0;" edge="1" parent="1" source="InM-GvDvjZe8zd8WrkyQ-76" target="InM-GvDvjZe8zd8WrkyQ-27">
          <mxGeometry relative="1" as="geometry" />
        </mxCell>
        <mxCell id="InM-GvDvjZe8zd8WrkyQ-81" style="edgeStyle=orthogonalEdgeStyle;rounded=0;orthogonalLoop=1;jettySize=auto;html=1;exitX=1;exitY=0.5;exitDx=0;exitDy=0;entryX=0;entryY=0.5;entryDx=0;entryDy=0;entryPerimeter=0;" edge="1" parent="1" source="InM-GvDvjZe8zd8WrkyQ-75" target="InM-GvDvjZe8zd8WrkyQ-27">
          <mxGeometry relative="1" as="geometry" />
        </mxCell>
      </root>
    </mxGraphModel>
  </diagram>
</mxfile>
